<?xml version="1.0" encoding="utf-8"?>
<!-- Generator: Adobe Illustrator 21.0.0, SVG Export Plug-In . SVG Version: 6.00 Build 0)  -->
<svg version="1.1" id="图层_1" xmlns="http://www.w3.org/2000/svg" xmlns:xlink="http://www.w3.org/1999/xlink" x="0px" y="0px"
	 viewBox="0 0 200 200" style="enable-background:new 0 0 200 200;" xml:space="preserve">
<path d="M50.2,123.3l4.4,11.6H71L45.8,67.8l0-0.1H29.3l0,0.1L4.1,134.9h16.5l4.4-11.6L50.2,123.3L50.2,123.3z M45.2,110.2H29.9
	l7.7-20.4L45.2,110.2z M83.7,67.5v67.4h16.4v-16h9c14.1,0,25.7-11.5,25.7-25.7s-11.5-25.7-25.7-25.7L83.7,67.5L83.7,67.5z
	 M118.3,93.2c0,5-4.2,9.2-9.2,9.2h-9V84h9C114.1,84,118.3,88.2,118.3,93.2z M174.3,67.5h-25.4v67.4h16.4v-16h9
	c14.1,0,25.7-11.5,25.7-25.7S188.5,67.5,174.3,67.5L174.3,67.5z M174.3,102.5h-9V84h9c5,0,9.2,4.2,9.2,9.2
	C183.6,98.2,179.3,102.5,174.3,102.5z M38,26.5h127v31.7h16.4V19.9c0-5.4-4.6-9.9-10.2-9.9H31.8c-5.6,0-10.2,4.4-10.2,9.9v38.2H38
	V26.5z M165,176.3H38v-31.7H21.6v38.2c0,5.4,4.6,9.9,10.2,9.9h139.5c5.6,0,10.2-4.4,10.2-9.9v-38.2H165L165,176.3L165,176.3z"/>
</svg>
