<?xml version="1.0" encoding="utf-8"?>
<!-- Generator: Adobe Illustrator 21.0.0, SVG Export Plug-In . SVG Version: 6.00 Build 0)  -->
<svg version="1.1" id="图层_1" xmlns="http://www.w3.org/2000/svg" xmlns:xlink="http://www.w3.org/1999/xlink" x="0px" y="0px"
	 viewBox="0 0 200 200" style="enable-background:new 0 0 200 200;" xml:space="preserve">
<path d="M78.4,5H19.7C11.6,5,5,11.6,5,19.8v58.7c0,8.1,6.6,14.7,14.8,14.8h58.7c8.1,0,14.7-6.6,14.8-14.8V19.8
	C93.2,11.6,86.5,5,78.4,5z M80.8,74.9c0,3.3-2.7,6-6,6H23.3c-3.3,0-6-2.7-6-6V23.3c0-3.3,2.7-6,6-6h0h51.6c3.3,0,6,2.7,6,6V74.9z"/>
<path d="M42.7,36.8h12.6c4,0,6,2,6,6v12.6c0,4-2,6-6,6H42.7c-4,0-6-2-6-6V42.8C36.7,38.8,38.7,36.8,42.7,36.8z"/>
<path d="M180.2,5h-58.7c-8.1,0-14.7,6.6-14.8,14.8v58.7c0,8.1,6.6,14.7,14.8,14.8h58.7c8.1,0,14.7-6.6,14.8-14.8V19.8
	C195,11.6,188.4,5,180.2,5z M182.6,74.9c0,3.3-2.7,6-6,6h-51.6c-3.3,0-6-2.7-6-6V23.3c0-3.3,2.7-6,6-6h51.6c3.3,0,6,2.7,6,6V74.9z"
	/>
<path d="M144.5,36.8h12.6c4,0,6,2,6,6v12.6c0,4-2,6-6,6h-12.6c-4,0-6-2-6-6V42.8C138.5,38.8,140.5,36.8,144.5,36.8z"/>
<path d="M78.4,106.8H19.7c-8.1,0-14.7,6.6-14.8,14.8v58.7c0,8.1,6.6,14.7,14.8,14.8h58.7c8.1,0,14.7-6.6,14.8-14.8v-58.7
	C93.2,113.4,86.5,106.8,78.4,106.8z M80.8,176.7c0,3.3-2.7,6-6,6H23.3c-3.3,0-6-2.7-6-6v-51.6c0-3.3,2.7-6,6-6h51.6c3.3,0,6,2.7,6,6
	V176.7z"/>
<path d="M42.7,138.6h12.6c4,0,6,2,6,6v12.6c0,4-2,6-6,6H42.7c-4,0-6-2-6-6v-12.6C36.7,140.6,38.7,138.6,42.7,138.6z"/>
<path d="M120.6,112c-3.3,0-6,2.7-6,6v12.6c0,3.3,2.7,6,6,6s6-2.7,6-6V118C126.6,114.7,123.9,112,120.6,112z M120.6,142.5
	c-3.3,0-6,2.7-6,6v36.6c0,3.3,2.7,6,6,6s6-2.7,6-6v-36.6C126.6,145.2,123.9,142.5,120.6,142.5z M182.8,112c-3.3,0-6,2.7-6,6v12.6
	c0,3.3,2.7,6,6,6c3.3,0,6-2.7,6-6V118C188.8,114.7,186.1,112,182.8,112z M182.8,142.5c-3.3,0-6,2.7-6,6v36.6c0,3.3,2.7,6,6,6
	c3.3,0,6-2.7,6-6v-36.6C188.8,145.2,186.1,142.5,182.8,142.5z M151,112c-3.3,0-6,2.7-6,6v24.3c0,3.3,2.7,6,6,6c3.3,0,6-2.7,6-6V118
	C157,114.7,154.3,112,151,112L151,112z M151,154.1c-3.3,0-6,2.7-6,6v25c0,3.3,2.7,6,6,6c3.3,0,6-2.7,6-6v-25
	C157,156.8,154.3,154.1,151,154.1z"/>
</svg>
