<?xml version="1.0" encoding="utf-8"?>
<!-- Generator: Adobe Illustrator 21.0.0, SVG Export Plug-In . SVG Version: 6.00 Build 0)  -->
<svg version="1.1" id="图层_1" xmlns="http://www.w3.org/2000/svg" xmlns:xlink="http://www.w3.org/1999/xlink" x="0px" y="0px"
	 viewBox="0 0 200.2 200" style="enable-background:new 0 0 200.2 200;" xml:space="preserve">
<path d="M104.6,0c32.9,15.4,59.1,23.9,78.6,25.2c3.2,0.2,5.7,2.9,5.7,6.1v76.2c-6.8,45-35,75.8-84.6,92.4
	c-50.2-16.6-78.4-47.4-84.6-92.4V35.9c0-5.6,4.3-10.3,9.9-10.8C49.2,23.2,74.2,14.8,104.6,0L104.6,0z M149.8,69.3
	c-2.9-2.9-7.5-2.9-10.3,0l-45.9,46.1l-24-24.1c-2.8-2.9-7.5-2.9-10.3,0c-2.8,2.9-2.8,7.5,0,10.4l29.2,29.3c1.4,1.4,3.3,2.1,5.2,2.1
	c1.9,0,3.7-0.7,5.2-2.1l51.1-51.3C152.7,76.8,152.7,72.2,149.8,69.3L149.8,69.3z"/>
</svg>
